<?xml version="1.0" encoding="UTF-8" standalone="no"?>
<!-- Created with Inkscape (http://www.inkscape.org/) -->

<svg
   xmlns:dc="http://purl.org/dc/elements/1.1/"
   xmlns:cc="http://creativecommons.org/ns#"
   xmlns:rdf="http://www.w3.org/1999/02/22-rdf-syntax-ns#"
   xmlns:svg="http://www.w3.org/2000/svg"
   xmlns="http://www.w3.org/2000/svg"
   xmlns:sodipodi="http://sodipodi.sourceforge.net/DTD/sodipodi-0.dtd"
   xmlns:inkscape="http://www.inkscape.org/namespaces/inkscape"
   width="100mm"
   height="100mm"
   viewBox="0 0 100 100"
   version="1.1"
   id="svg8"
   inkscape:version="0.92.1 r15371"
   sodipodi:docname="szlogo.svg">
  <defs
     id="defs2" />
  <sodipodi:namedview
     id="base"
     pagecolor="#ffffff"
     bordercolor="#666666"
     borderopacity="1.0"
     inkscape:pageopacity="0.0"
     inkscape:pageshadow="2"
     inkscape:zoom="0.7"
     inkscape:cx="476.42074"
     inkscape:cy="533.35615"
     inkscape:document-units="mm"
     inkscape:current-layer="layer1"
     showgrid="false"
     inkscape:window-width="2880"
     inkscape:window-height="1526"
     inkscape:window-x="2869"
     inkscape:window-y="-11"
     inkscape:window-maximized="1" />
  <metadata
     id="metadata5">
    <rdf:RDF>
      <cc:Work
         rdf:about="">
        <dc:format>image/svg+xml</dc:format>
        <dc:type
           rdf:resource="http://purl.org/dc/dcmitype/StillImage" />
        <dc:title></dc:title>
      </cc:Work>
    </rdf:RDF>
  </metadata>
  <g
     inkscape:label="Layer 1"
     inkscape:groupmode="layer"
     id="layer1"
     transform="translate(0,-197)">
    <path
       style="fill:#8c8c8c;fill-opacity:1;stroke-width:0.1400571"
       d="m 49.495145,265.54308 c -0.282955,-0.1313 -0.831934,-0.58233 -1.219956,-1.00229 -2.164501,-2.34263 -3.509972,-3.81195 -4.01352,-4.38297 l -0.2857,-0.32399 0.298196,-0.59227 c 0.164002,-0.32575 0.481646,-0.7688 0.705874,-0.98455 0.22422,-0.21575 1.100968,-1.14006 1.948307,-2.05401 0.847348,-0.91396 2.076347,-2.23279 2.73112,-2.93075 0.654764,-0.69796 1.66317,-1.78725 2.240913,-2.42066 0.577734,-0.6334 1.491606,-1.6184 2.030825,-2.18887 0.539219,-0.57047 1.051447,-1.1216 1.138292,-1.22472 0.08688,-0.10312 0.275921,-0.29451 0.420175,-0.42531 0.144254,-0.1308 0.721788,-0.72955 1.283418,-1.33055 0.56163,-0.601 1.597581,-1.69147 2.30212,-2.42326 l 1.280983,-1.33055 h 17.109245 c 14.256155,0 17.147696,0.0319 17.339789,0.19131 0.210679,0.17484 0.195311,0.23517 -0.178334,0.70029 -0.512891,0.63844 -1.810041,2.03496 -5.611392,6.04123 -0.84055,0.88586 -1.987984,2.10133 -2.549859,2.70103 -0.561876,0.5997 -1.537665,1.62388 -2.168418,2.27592 l -1.146816,1.18556 H 71.787929 c -6.875408,0 -11.460255,0.0523 -11.610071,0.13251 -0.279593,0.14963 -0.819157,0.68994 -3.025345,3.02954 -0.847339,0.89859 -1.761211,1.8666 -2.030825,2.15115 -0.269614,0.28455 -1.246512,1.3319 -2.170881,2.32746 -0.924378,0.99555 -1.964301,2.10425 -2.310945,2.46379 l -0.630262,0.6537 z M 4.7264578,254.87681 c -0.3140308,-0.12703 -0.2930993,-0.16387 0.6302574,-1.10919 0.5252916,-0.53779 1.4439805,-1.49935 2.0415309,-2.1368 0.5975504,-0.63745 1.4738601,-1.56867 1.9473537,-2.06938 0.4734936,-0.5007 1.4893512,-1.60365 2.2574622,-2.451 0.768111,-0.84734 1.814085,-1.98647 2.324388,-2.53139 0.510302,-0.54493 1.211438,-1.30988 1.558079,-1.69991 0.436698,-0.49137 0.802309,-0.75677 1.190486,-0.86421 0.386237,-0.1069 3.996551,-0.15836 11.624738,-0.16569 6.085482,-0.005 11.1614,-0.0534 11.279826,-0.10582 0.216404,-0.0957 1.902866,-1.84646 3.986402,-4.13842 1.984676,-2.18322 2.28877,-2.51364 2.765491,-3.00492 0.173672,-0.17897 0.769891,-0.80923 1.324932,-1.40058 1.371545,-1.46124 1.309855,-1.40309 1.86646,-1.7592 l 0.49466,-0.31648 0.385132,0.3602 c 0.557531,0.52144 0.727495,0.7016 1.39102,1.47445 0.327741,0.38175 1.098931,1.2326 1.713735,1.89077 2.244585,2.40291 2.078202,2.17474 1.977461,2.71173 -0.06498,0.34641 -0.38286,0.78917 -1.103094,1.53646 -0.556495,0.57739 -1.673575,1.75399 -2.482399,2.61465 -0.808833,0.86067 -1.911782,2.025 -2.451001,2.5874 -0.539219,0.5624 -1.705202,1.80011 -2.591056,2.75045 -0.885863,0.95036 -2.058298,2.20359 -2.605405,2.78498 -0.547117,0.5814 -1.332176,1.43523 -1.744589,1.89742 -0.412405,0.46219 -0.941664,1.03209 -1.176135,1.26644 -0.234461,0.23436 -0.730439,0.77009 -1.102166,1.1905 l -0.675858,0.76437 -17.251449,0.0273 c -10.486587,0.0165 -17.3788151,-0.0243 -17.5762622,-0.10411 z"
       id="path4509"
       inkscape:connector-curvature="0" />
  </g>
</svg>
